<svg preserveAspectRatio="none" width="100%" height="100%" overflow="visible" style="display: block;" viewBox="0 0 20 20" fill="none" xmlns="http://www.w3.org/2000/svg">
<g id="analytics">
<mask id="mask0_0_7" style="mask-type:alpha" maskUnits="userSpaceOnUse" x="0" y="0" width="20" height="20">
<rect id="Bounding box" width="20" height="20" fill="var(--fill-0, #D9D9D9)"/>
</mask>
<g mask="url(#mask0_0_7)">
<path id="analytics_2" d="M5.83333 14.1667H7.5V10H5.83333V14.1667ZM12.5 14.1667H14.1667V5.83333H12.5V14.1667ZM9.16667 14.1667H10.8333V11.6667H9.16667V14.1667ZM9.16667 10H10.8333V8.33333H9.16667V10ZM4.16667 17.5C3.70833 17.5 3.31597 17.3368 2.98958 17.0104C2.66319 16.684 2.5 16.2917 2.5 15.8333V4.16667C2.5 3.70833 2.66319 3.31597 2.98958 2.98958C3.31597 2.66319 3.70833 2.5 4.16667 2.5H15.8333C16.2917 2.5 16.684 2.66319 17.0104 2.98958C17.3368 3.31597 17.5 3.70833 17.5 4.16667V15.8333C17.5 16.2917 17.3368 16.684 17.0104 17.0104C16.684 17.3368 16.2917 17.5 15.8333 17.5H4.16667ZM4.16667 15.8333H15.8333V4.16667H4.16667V15.8333Z" fill="var(--fill-0, #5D6871)"/>
</g>
</g>
</svg>
